<svg xmlns="http://www.w3.org/2000/svg" viewBox="0 0 420 420" fill="none">
  <ellipse cx="210" cy="350" rx="122" ry="16" fill="#000" opacity=".1"/>
  <defs>
    <linearGradient id="rice" x1="90" y1="186" x2="330" y2="312" gradientUnits="userSpaceOnUse">
      <stop stop-color="#F2E3D1"/>
      <stop offset="1" stop-color="#BE8F6D"/>
    </linearGradient>
  </defs>
  <path d="M88 224h96l-10 46c-6 20-22 32-42 32s-36-12-42-32l-2-46Z" fill="url(#rice)"/>
  <path d="M164 234h96l-10 46c-6 20-22 32-42 32s-36-12-42-32l-2-46Z" fill="url(#rice)"/>
  <path d="M240 224h96l-10 46c-6 20-22 32-42 32s-36-12-42-32l-2-46Z" fill="url(#rice)"/>
  <ellipse cx="136" cy="224" rx="46" ry="12" fill="#EEDDC8"/>
  <ellipse cx="212" cy="234" rx="46" ry="12" fill="#EEDDC8"/>
  <ellipse cx="288" cy="224" rx="46" ry="12" fill="#EEDDC8"/>
</svg>