<svg xmlns="http://www.w3.org/2000/svg" viewBox="0 0 420 420" fill="none">
  <ellipse cx="212" cy="352" rx="118" ry="20" fill="#000" opacity=".14"/>
  <defs>
    <linearGradient id="g1" x1="120" y1="92" x2="296" y2="318" gradientUnits="userSpaceOnUse">
      <stop stop-color="#F4EFE8"/><stop offset="1" stop-color="#D9C8B5"/>
    </linearGradient>
  </defs>
  <rect x="112" y="88" width="184" height="240" rx="58" fill="url(#g1)"/>
  <path d="M124 170c28-18 56-18 84 0" stroke="#C8B19A" stroke-width="4" opacity=".35"/>
  <path d="M132 196c16 10 34 15 54 14" stroke="#D44" stroke-width="7" stroke-linecap="round"/>
  <path d="M178 212c24 10 42 8 66-5" stroke="#3F6ED8" stroke-width="7" stroke-linecap="round"/>
  <path d="M254 224c16 5 26 3 36-3" stroke="#57B678" stroke-width="7" stroke-linecap="round"/>
  <path d="M296 152h18c28 0 44 18 44 42s-16 42-44 42h-18" stroke="#E7DDD2" stroke-width="18" stroke-linecap="round"/>
  <ellipse cx="204" cy="102" rx="72" ry="16" fill="#EDE5DC"/>
</svg>